<svg width="99" height="44" viewBox="0 0 99 44" fill="none" xmlns="http://www.w3.org/2000/svg">
<path d="M25.464 1.107C25.342 1.122 24.977 1.163 24.516 1.21C24.196 1.243 23.884 1.269 23.675 1.286C23.259 0.529 22.521 0 21.599 0C20.874 0 20.285 0.225 19.79 0.843C19.375 1.362 19.105 2.078 18.842 2.45C16.701 5.484 13.289 6.014 9.28904 6.014C8.36704 6.014 7.47304 5.9 6.61004 5.702C6.47104 5.67 6.33505 5.81 6.39805 5.938C8.01605 9.211 11.874 11.576 15.008 12.094V16.141H15.921V12.19C16.012 12.194 16.105 12.204 16.194 12.204C16.758 12.208 17.266 12.163 17.748 12.092V16.141H18.661V11.904C20.14 11.501 21.236 10.7 22.186 9.544C23.331 8.151 23.999 5.676 24.039 3.267C24.189 3.114 24.533 2.754 24.765 2.442C25.299 1.728 25.717 1.075 25.464 1.107ZM21.807 2.708C21.431 2.708 21.126 2.403 21.126 2.027C21.126 1.651 21.431 1.346 21.807 1.346C22.183 1.346 22.488 1.651 22.488 2.027C22.488 2.403 22.183 2.708 21.807 2.708Z" fill="#00CC96"/>
<path d="M19.181 16.134V37.048H14.341V28.473H4.84V37.048H0V16.134H4.84V24.38H14.341V16.134H19.181Z" fill="black"/>
<path d="M39.766 20.9741L32.506 38.0341C30.952 41.9181 28.741 43.0831 25.843 43.0831C24.199 43.0831 22.408 42.5451 21.363 41.6191L23.066 38.3031C23.782 38.9301 24.768 39.3191 25.694 39.3191C26.979 39.3191 27.696 38.7521 28.323 37.3181L28.384 37.1691L21.422 20.9741H26.232L30.743 31.8791L35.284 20.9741H39.766Z" fill="black"/>
<path d="M57.811 20.9741V34.3591C57.811 40.3351 54.584 43.0831 48.789 43.0831C45.741 43.0831 42.784 42.3361 40.901 40.8721L42.754 37.5261C44.128 38.6311 46.369 39.3481 48.431 39.3481C51.717 39.3481 53.152 37.8541 53.152 34.9561V34.2691C51.926 35.6131 50.164 36.2701 48.073 36.2701C43.621 36.2701 40.036 33.1931 40.036 28.5021C40.036 23.8121 43.621 20.7341 48.073 20.7341C50.313 20.7341 52.166 21.4811 53.39 23.0341V20.9741H57.811ZM53.21 28.5031C53.21 26.1431 51.447 24.5601 48.997 24.5601C46.547 24.5601 44.755 26.1431 44.755 28.5031C44.755 30.8631 46.547 32.4471 48.997 32.4471C51.447 32.4471 53.21 30.8631 53.21 28.5031Z" fill="black"/>
<path d="M78.724 20.9741V34.3591C78.724 40.3351 75.497 43.0831 69.702 43.0831C66.654 43.0831 63.697 42.3361 61.814 40.8721L63.667 37.5261C65.041 38.6311 67.282 39.3481 69.344 39.3481C72.63 39.3481 74.065 37.8541 74.065 34.9561V34.2691C72.839 35.6131 71.077 36.2701 68.986 36.2701C64.534 36.2701 60.949 33.1931 60.949 28.5021C60.949 23.8121 64.534 20.7341 68.986 20.7341C71.226 20.7341 73.079 21.4811 74.303 23.0341V20.9741H78.724ZM74.123 28.5031C74.123 26.1431 72.36 24.5601 69.91 24.5601C67.46 24.5601 65.668 26.1431 65.668 28.5031C65.668 30.8631 67.46 32.4471 69.91 32.4471C72.36 32.4471 74.123 30.8631 74.123 28.5031Z" fill="black"/>
<path d="M98.712 30.3261H86.552C87 32.3271 88.703 33.5531 91.154 33.5531C92.856 33.5531 94.082 33.0451 95.187 31.9991L97.666 34.6881C96.172 36.3911 93.932 37.2881 91.033 37.2881C85.476 37.2881 81.861 33.7921 81.861 29.0121C81.861 24.2011 85.536 20.7361 90.435 20.7361C95.156 20.7361 98.801 23.9031 98.801 29.0711C98.802 29.4291 98.741 29.9371 98.712 30.3261ZM86.492 27.6071H94.409C94.081 25.5751 92.557 24.2611 90.466 24.2611C88.345 24.2611 86.821 25.5451 86.492 27.6071Z" fill="black"/>
</svg>
